<svg xmlns="http://www.w3.org/2000/svg" width="40" height="41" fill="none" viewBox="0 0 40 41"><rect width="40" height="40" y=".659" fill="#EEE8FF" rx="20"/><path stroke="#602EE6" stroke-linecap="round" stroke-linejoin="round" d="M14.81 13.16c2.58 0 4.67 2.09 4.67 4.67v6.3c0 2.58-2.09 4.67-4.67 4.67a4.31 4.31 0 0 1-4.31-4.31v-7.02a4.31 4.31 0 0 1 4.31-4.31ZM23.92 19.3a1.43 1.43 0 1 0 0-2.86 1.43 1.43 0 0 0 0 2.86ZM28.76 25.16a1.43 1.43 0 1 0 0-2.86 1.43 1.43 0 0 0 0 2.86ZM30.44 16.76l-8.45 8.44"/></svg>