<svg xmlns="http://www.w3.org/2000/svg" width="40" height="40" fill="none" viewBox="0 0 40 40"><rect width="40" height="40" fill="#E8ECEF" rx="20"/><g stroke="#296f6c" clip-path="url(#clip0_610_3628)"><path stroke-miterlimit="10" d="M20 29.5a9.5 9.5 0 1 0 0-19 9.5 9.5 0 0 0 0 19Z"/><path stroke-linecap="round" stroke-linejoin="round" d="M14.41 18.46s.69-.86 1.54-.86c.85 0 1.54.86 1.54.86M22.56 18.46s.69-.86 1.54-.86c.85 0 1.54.86 1.54.86M23.51 22.18c0 1.94-1.57 3.51-3.51 3.51-1.94 0-3.51-1.57-3.51-3.51h7.02Z"/></g><defs><clipPath id="clip0_610_3628"><path fill="#fff" d="M10 10h20v20H10z"/></clipPath></defs></svg>