<svg xmlns="http://www.w3.org/2000/svg" width="40" height="41" fill="none" viewBox="0 0 40 41"><rect width="40" height="40" y=".23" fill="#E8ECEF" rx="20"/><g stroke="#296f6c" stroke-linecap="round" stroke-linejoin="round" clip-path="url(#clip0_610_3636)"><path d="M25.88 17.4a1.89 1.89 0 1 0 0-3.78 1.89 1.89 0 0 0 0 3.78Z"/><path d="m31.222 18.178-2.672-2.673-2.673 2.673 2.673 2.673 2.672-2.673ZM25.883 12.846 23.21 15.52l-2.673-2.673a3.777 3.777 0 0 1 5.346 0ZM17.02 23.03l1.34 1.33-5.12 5.12-1.34-1.33 5.12-5.12ZM25.21 17.52 21 21.72l-1.33-1.33 4.21-4.21.64.64.04.05.65.65Z"/><path d="M25.45 28.81c-.36.36-.84.55-1.32.55-.48 0-.96-.18-1.32-.55l-4.44-4.45-1.34-1.33-2.82-2.82c-1.25.33-2.63 0-3.61-.97-.98-.98-1.3-2.36-.97-3.61l1.59 1.58c.67.67 1.75.79 2.5.21.91-.7.97-2.02.18-2.8l-1.63-1.63a3.744 3.744 0 0 1 4.58 4.58l2.82 2.82 1.34 1.33 4.44 4.45c.73.73.73 1.91 0 2.64Z"/></g><defs><clipPath id="clip0_610_3636"><path fill="#fff" d="M9 11.23h22.73v18.75H9z"/></clipPath></defs></svg>