<svg xmlns="http://www.w3.org/2000/svg" width="40" height="40" fill="none" viewBox="0 0 40 40"><rect width="39.05" height="39.23" x=".475" fill="#E8ECEF" rx="19.525"/><path stroke="#296f6c" stroke-linecap="round" stroke-linejoin="round" d="M16.525 27.47h6.68V13.73H9.475v13.74h3.53M28.615 27.47h1.91v-5.28c0-2.33-1.9-4.23-4.23-4.23h-3.09v9.51h1.9"/><path stroke="#602EE6" stroke-linecap="round" stroke-linejoin="round" d="M14.765 29.23a1.76 1.76 0 1 0 0-3.52 1.76 1.76 0 0 0 0 3.52ZM26.865 29.23a1.76 1.76 0 1 0 0-3.52 1.76 1.76 0 0 0 0 3.52ZM23.205 16.52v-4.65L21.335 10"/></svg>